<svg xmlns="http://www.w3.org/2000/svg" viewBox="0 0 5024 5024">
  <path fill="#0924b6" d="m 3201,2614 c 50,0 77,36 83,56 l -20,7 c -4,-11 -21,-43 -63,-43 -42,0 -73,30 -73,80 0,50 33,82 78,82 45,0 74,-31 74,-71 h -104 v -19 h 126 v 103 h -20 v -38 c -5,9 -31,44 -76,44 -60,0 -100,-41 -100,-101 0,-60 46,-100 95,-100 z m -977,116 h -50 v 79 h -22 v -188 h 80 c 52,0 71,28 71,56 0,28 -25,44 -51,48 24,12 23,59 34,69 9,9 23,-9 23,-9 l 11,12 c 0,0 -11,17 -32,17 -43,0 -23,-84 -64,-84 z m 13,-89 h -63 v 69 h 64 c 56,0 60,-69 -1,-69 z m -502,10 v 158 h -22 v -188 h 32 l 67,161 70,-161 H 1915 v 188 h -22 v -158 l -67,158 h -23 z m 286,-30 h 25 L 2118,2809 h -21 l -18,-46 -91,0 -17,45 h -24 z m 13,21 -40,102 78,1 z M 2457,2809 2396,2710 l -24,26 -1,73 h -22 l 0,-188 h 21 l 0,87 80,-87 h 26 l -68,74 72,114 z M 2516,2621 h 128 v 19 h -107 v 63 h 97 v 18 h -97 v 68 l 110,0 V 2809 h -131 z m 217,20 -63,0 V 2621 h 148 v 19 h -63 v 169 h -22 z m 117,-20 h 22 v 188 h -21 z m 68,0 h 29 l 98,161 v -161 h 22 v 188 h -29 l -98,-160 v 160 h -22 z m -490,-246 c 14,18 32,19 51,16 14,-3 26,-12 26,-19 0,-7 -26,-9 -38,-10 -111,-8 -147,-23 -147,-69 13,-73 76,-86 144,-88 67,-1 133,13 148,81 h -109 c -6,-14 -27,-18 -35,-18 -16,0 -41,8 -41,23 8,5 27,6 54,8 41,4 130,7 133,64 -2,42 -36,92 -140,92 -112,0 -140,-36 -154,-81 z m 562,-45 v -121 h 100 l 0,121 c 0,56 29,62 55,62 27,0 53,-9 53,-62 L 3200,2209 h 100 v 121 c 0,111 -86,126 -155,126 C 3076,2456 2990,2441 2990,2330 Z m 939,-3 c 0,-84 74,-122 169,-122 95,0 169,36 169,126 0,90 -64,125 -169,125 -106,0 -169,-45 -169,-129 z M 4098,2268 c -93,0 -92,124 0,124 92,0 93,-124 0,-124 z M 756,2209 h 198 c 187,0 137,122 88,122 76,0 117,119 -82,119 H 756 Z m 198,183 c 47,0 50,-42 0,-42 h -96 v 42 z m -14,-83 c 57,0 54,-40 0,-40 h -82 v 40 z m 223,-100 h 120 L 1394,2383 1504,2209 h 120 v 241 h -101 v -153 l -92,153 h -76 l -91,-153 v 153 h -101 z m 1588,241 0,-182 -96,0 V 2209 h 291 v 59 h -94 v 182 H 2751 Z M 3361,2209 h 199 c 199,0 200,241 0,241 h -199 z m 169,59 -68,0 0,123 68,0 c 100,-1 98,-123 -1,-122 z m 238,-60 100,0 0,241 H 3768 Z M 1696,2209 h 120 l 110,174 110,-174 h 121 v 241 h -102 v -153 l -92,153 h -76 l -90,-153 v 153 h -102 z" />
</svg>
